<svg xmlns="http://www.w3.org/2000/svg" viewBox="0 0 1300.61 258.86"><path d="M858.52,3.21c13,1.06,27.45,5.63,9.15,28.51C852.15,51.12,804,103.87,780,103.87s-34.84-4.58-17.95-27.11,21.11-27.45,40.47-46.45c17.54-17.22,42.94-28.16,56-27.1" fill="#f57d2b"/><path d="M131.54,19.46a5.22,5.22,0,0,1-5.15,3.64H126c-6.24-.52-22.67-2.33-32.43-1.39C78.16,23.2,62.31,29.49,52.48,54L31,108.24c-9.64,24,1.1,33.73,16.59,33.73,9.77,0,22.66-.86,29.33-1.38h.36c2.77,0,3.06,1.55,2.24,3.63L74.89,155.8c-1,2.42-3,3.28-5.65,4A168.65,168.65,0,0,1,39,162.54c-22.13,0-50.92-11.61-33.8-54.3L26.66,54C44.06,10.65,76.51.2,98.65.2a202.25,202.25,0,0,1,35.06,3.71c2.13.69,3.44,1.56,2.47,4Zm46.58,30.66c-18.6,0-31.72,10.42-41.15,33.73l-9.63,23.85c-9.41,23.31-4.7,33.73,13.9,33.73S173,131,182.39,107.7L192,83.85c9.41-23.31,4.71-33.73-13.9-33.73M209,107.7c-15.69,38.85-45,55.1-76.35,55.1s-47.53-16.25-31.84-55.1l9.63-23.85c15.7-38.85,45-55.1,76.35-55.1S234.29,45,218.59,83.85Zm134.5,50.64c-1.06,2.63-3.57,5-5.69,5H319.63c-2.11,0-2.69-2.39-1.63-5l34.63-85.71c6.56-16.23,3.18-19.34-5.69-19.34h-4.63c-11.18,0-15.82,7.64-20.54,19.34l-34.64,85.71c-1.05,2.63-3.56,5-5.69,5H263.12c-2.13,0-2.7-2.39-1.64-5l34.63-85.71c4.73-11.7,6.27-19.34-4.92-19.34h-4.63c-8.87,0-14.75,3.11-21.31,19.34l-34.64,85.71c-1.06,2.63-3.57,5-5.68,5H206.8c-2.13,0-2.71-2.39-1.65-5l34.63-85.71c12.15-30.08,32.9-45.6,57.4-45.6h4.63c10.8,0,18.23,3.1,21.6,9.55A48.32,48.32,0,0,1,352.92,27h4.63c24.5,0,32.7,15.52,20.54,45.6ZM455.18,48.13c-4.57,0-10,.17-14.06.35L426.58,84.75h24.21c17.72,0,25.83-7.86,29.48-17l1-2.5c5-12.51-1.7-17.15-26.1-17.15m-51.67,94.15c4.57,0,11.49.36,15.49.36,24.39,0,34.38-5.9,39.4-18.4l.93-2.33c3.94-9.82,2.07-18.93-15.85-18.93H419.27ZM506.15,67.42a47.61,47.61,0,0,1-28.35,27c9.76,4.64,13,13.76,7.6,27.16l-1.22,3c-11.39,28.41-38,38.59-73.42,38.59-15.44,0-26.71-.89-32.19-2-5.86-1.07-7.93-3-5.28-9.65L418.42,39c2.59-6.43,6-8.75,12.45-9.64a270.39,270.39,0,0,1,32.55-1.79c34.5,0,55,9.29,44.16,36.27ZM612.58,44.34a6.2,6.2,0,0,1-5.32,3.57H567.84c-11.21,0-16.72,3.58-21.52,15.39l-7.84,19.31h52.38a2.43,2.43,0,0,1,2.41,3.58L588,99.07a6.21,6.21,0,0,1-5.32,3.57H530.35L521,125.71c-4.79,11.81-2.19,15.38,9,15.38h39.43a2.42,2.42,0,0,1,2.41,3.58l-4.64,11.45c-1,2.5-2.36,3.39-5.4,3.75-6.54.89-14.73,2.51-37.74,2.51-25.11,0-42.09-6.26-29.74-36.67L519.66,63.3C532,32.89,554.07,26.63,579.19,26.63c23,0,29.88,1.61,35.7,2.5,2.75.36,3.36,1.26,2.33,3.76Zm66.63-23.29c-7.1,0-12.24.36-16.34.54l-47.3,118.88c3.95.18,8.79.55,15.91.55,19.19,0,36.6-7,47.42-34l20.47-51.94c10.82-27-1-34-20.16-34m26.19,86c-14.29,35.62-44,55.06-82.37,55.06-13.63,0-31.56-1.26-36.95-2.16-3.05-.54-4.2-2-2.76-5.58L641.74,7.74c1.45-3.61,3.75-5,7.23-5.58C655.09,1.26,674,0,687.66,0c38.4,0,52.49,19.44,38.2,55.07Zm89.77-56.89c-18.6,0-31.73,10.42-41.14,33.73l-9.64,23.85c-9.41,23.31-4.7,33.73,13.9,33.73S790,131,799.43,107.7l9.64-23.85c9.41-23.31,4.7-33.73-13.9-33.73M826,107.7c-15.69,38.85-45,55.1-76.36,55.1s-47.52-16.25-31.83-55.1l9.63-23.85c15.7-38.85,45-55.1,76.35-55.1S851.33,45,835.64,83.85Zm112.15,6c-17,42.27-49.55,49.76-61.76,49.76h-1.24c-12.2,0-49.53-7.49-32.57-49.76l32.47-81.15a6.67,6.67,0,0,1,5.56-4.08h19.45c2.27,0,3.15,1.94,2.3,4.08l-32.48,81.15c-8.08,20.17-2.09,24.82,9.91,24.82H881c12,0,21.72-4.65,29.81-24.82l32.48-81.15a6.65,6.65,0,0,1,5.56-4.08h19.45c2.27,0,3.15,1.94,2.29,4.08Zm128-55.48-94,79.44a5.31,5.31,0,0,0-1.57,2c-.29.72,0,1.08,1.31,1.08h59.38c2.12,0,6.16,2.68,5.37,4.67l-6.93,14.47c-.8,2-5.16,2.2-7.28,2.2H953.15c-5.58,0-8.75-1.26-12.27-5.74s-2.45-14.66-2.45-10.88,0-6.76,1.88-8.29l95.55-83.86a4.58,4.58,0,0,0,1.23-1.62c.35-.91,0-1.45-1.35-1.45h-53.6c-2.12,0-3.16-1.83-2.36-3.82l6.08-15.18a5.64,5.64,0,0,1,5-3.43h67c5.59,0,15.63,5.73,16.2,11.39s-2.23,11.62-2.23,11.62a22.14,22.14,0,0,1-5.67,7.41m61.44-8.13c-18.59,0-31.72,10.42-41.14,33.73l-9.63,23.85c-9.42,23.31-4.71,33.73,13.89,33.73s31.73-10.42,41.15-33.73l9.63-23.85c9.41-23.31,4.71-33.73-13.9-33.73m30.84,57.58c-15.69,38.85-45,55.1-76.35,55.1s-47.53-16.25-31.83-55.1l9.62-23.85c15.7-38.85,45-55.1,76.36-55.1s47.53,16.25,31.83,55.1Zm141.81-75.12-32.48,81.15c-17,42.27-49.55,49.76-61.75,49.76h-1.24c-12.21,0-49.52-7.49-32.58-49.76l32.48-81.15a6.67,6.67,0,0,1,5.56-4.08h19.44c2.28,0,3.16,1.94,2.31,4.08l-32.48,81.15c-8.09,20.17-2.1,24.82,9.91,24.82h1.23c12,0,21.73-4.65,29.81-24.82L1273,32.58a6.67,6.67,0,0,1,5.56-4.08H1298c2.27,0,3.15,1.94,2.3,4.08"/><path d="M156.88,201.5l-23,35.22c-3.71,5.73-8.28,7.28-12,7.28s-7-1.55-6.28-7.28L120,201.5a1.3,1.3,0,0,1,.13-.54,1.94,1.94,0,0,1,1.66-1.24h7.36c.66,0,1,.53.87,1.54l-5.57,32.44c-.28,1.47.05,1.94.64,1.94s1.28-.47,2.15-1.94L147,201.26a2.84,2.84,0,0,1,2.15-1.54h7.36c.66,0,1,.53.69,1.24a1.91,1.91,0,0,1-.29.54M308.53,208c-5.15,0-9.47,4.1-11.95,10.45l-2.43,6.27c-2.48,6.35-1.35,10.45,3.8,10.45s9.47-4.1,11.94-10.45l2.43-6.27c2.48-6.35,1.36-10.45-3.79-10.45m11.06,16.72C315.28,235.79,306.06,244,294.51,244s-14.38-8.21-10.07-19.28l2.44-6.27c4.31-11.07,13.54-19.28,25.08-19.28s14.39,8.21,10.08,19.28ZM486,243.23c-4.28,11-11.38,15.63-22.63,15.63-6.18,0-10.68-.92-13-1.86-.9-.31-1.17-.77-.74-1.86l1.59-4.09a2.12,2.12,0,0,1,1.91-1.33h.15c3.19.32,9.94.94,13.32.94,6,0,7.44-1.55,9.52-6.9l.24-.61a57.6,57.6,0,0,1-7.39.85c-11.84,0-14.71-7.36-10-19.43L468,201.26a2.48,2.48,0,0,1,2.08-1.54h6.76c.81,0,1.21.69.87,1.54l-9.07,23.31c-2.47,6.35-2.76,11.07,3.56,11.07a65,65,0,0,0,7.29-.62l13.16-33.76a2.47,2.47,0,0,1,2.06-1.54h6.77c.81,0,1.2.69.87,1.54Zm170.23-35.7c-6.33,0-9.71,4.73-12.18,11.07l-2.32,6c-2.47,6.35-2.77,11.07,3.56,11.07a43.34,43.34,0,0,0,7.27-.55l10.52-27a37.94,37.94,0,0,0-6.85-.54m4.16,32.36c-.44,1.17-.92,1.63-2.79,2.09A68.9,68.9,0,0,1,642,244c-11.84,0-14.72-7.36-10-19.43l2.32-6c4.7-12.07,13.3-19.43,25.15-19.43a51.22,51.22,0,0,1,14,2c1.51.47,1.63.93,1.17,2.1Zm169-32.36c-6.32,0-9.71,4.73-12.18,11.07l-2.33,6c-2.46,6.35-2.76,11.07,3.57,11.07a65.17,65.17,0,0,0,7.3-.62l10.43-26.79a34,34,0,0,0-6.79-.7m2.87,35.7c-4.28,11-11.38,15.63-22.64,15.63-6.17,0-10.66-.92-13-1.86-.9-.31-1.17-.77-.74-1.86l1.6-4.09a2.1,2.1,0,0,1,1.91-1.33h.14c3.2.32,9.94.94,13.32.94,6,0,7.45-1.55,9.53-6.9l.24-.61a58,58,0,0,1-7.39.85c-11.85,0-14.73-7.36-10-19.43l2.32-6c4.7-12.07,13.3-19.43,25.14-19.43a51.25,51.25,0,0,1,14,2c1.51.47,1.62.93,1.16,2.1ZM1002.66,208c-4.57,0-9.2,3.41-11.58,9.52l-.12.31h15.59l.12-.31c2.35-6,.54-9.52-4-9.52m11.59,15.17c-.48,1.24-1.19,1.94-2.22,1.94h-24l-.09.23c-1.75,4.49-2.07,9.83,5,9.83,5.37,0,10.62-.46,13.83-.77h.22c.74,0,1.18.38.87,1.16l-2,5.11a2.57,2.57,0,0,1-2.33,2A69.36,69.36,0,0,1,988.79,244c-7.36,0-16.18-4.19-10.24-19.43l2.24-5.73c4.69-12.08,14-19.67,25.3-19.67s14.34,8.13,9.85,19.67Zm174.22-20.67-1.74,4.49a2,2,0,0,1-1.76,1.47h-.29a93.59,93.59,0,0,0-11.77-.93c-3.53,0-5.41.85-6.35,3.26-.48,1.23.33,2,1.71,3.17l7.23,6.19c4.64,3.95,4,7.82,2.48,11.77-2.62,6.74-9.48,12.08-19.12,12.08-2.87,0-8.9-.39-12.57-1.55-.79-.24-1.06-.85-.7-1.78l1.81-4.65a2.08,2.08,0,0,1,1.74-1.24h.28c3.36.47,9.83.86,12,.86,4.56,0,5.85-1.63,6.67-3.72.57-1.47.05-2.4-1.7-3.95l-7.55-6.5c-2.69-2.32-3.76-6.19-2-10.68,3-7.75,9.15-11.62,18.5-11.62a44.92,44.92,0,0,1,12.48,1.55c.8.24,1,.85.63,1.78" fill="#f57d2b"/></svg>